# xmcd
# 
# Track frame offsets:
#     150
#     14674
#     35364
#     57673
#     77111
#     99431
#     120694
#     134007
#     152346
# 
# Disc length: 2390
# 
# Revision: 1
# Processed by: cddbd v1.5.2PL0 Copyright (c) Steve Scherf et al.
# Submitted via: fre:ac v1.1beta1pre4
# 
DISCID=74095409
DTITLE=Cracker - Berkeley To Bakersfield D2
DYEAR=2014
DGENRE=Rock
TTITLE0=California Country Boy
TTITLE1=Almond Grove
TTITLE2=King Of Bakersfield
TTITLE3=Tonight I Cross The Border
TTITLE4=Get On Down The Road
TTITLE5=I'm Sorry Baby
TTITLE6=The San Bernardino Boy
TTITLE7=When You Come Down
TTITLE8=Where Have Those Days Gone
EXTD=
EXTT0=
EXTT1=
EXTT2=
EXTT3=
EXTT4=
EXTT5=
EXTT6=
EXTT7=
EXTT8=
PLAYORDER=
